<svg aria-hidden="true" style="position: absolute; width: 0; height: 0; overflow: hidden;" version="1.1" xmlns="http://www.w3.org/2000/svg" xmlns:xlink="http://www.w3.org/1999/xlink">
<defs>
<symbol id="icon-mail" viewBox="0 0 43 32">
<path fill="#757575" style="fill: var(--color1, #757575)" d="M40.014-0.003h-34.679l-5.335 5.335v24.009l5.335 2.668h34.679l2.668-2.668v-24.009l-2.668-5.335zM40.014 2.664l-18.673 16.006-18.673-16.006h37.347zM40.014 29.341h-37.347v-24.009l18.673 16.006 18.673-16.006v24.009z"></path>
</symbol>
<symbol id="icon-smartphone" viewBox="0 0 20 32">
<path fill="#757575" style="fill: var(--color1, #757575)" d="M18.003 0h-14.005l-4.001 4.001v26.009l4.001 2.001h14.005l2.001-2.001v-26.009l-2.001-4.001zM3.998 2.001h14.005v22.008h-16.006v-20.007l2.001-2.001zM18.003 30.011h-16.006v-4.001h16.006v4.001z"></path>
<path fill="#757575" style="fill: var(--color1, #757575)" d="M3.998 28.010c2.001 0 2.001 0 0 0 0 2.001 0 2.001 0 0-2.001 0-2.001 0 0 0z"></path>
</symbol>
<symbol id="icon-antenna" viewBox="0 0 32 32">
<path fill="#212121" style="fill: var(--color2, #212121)" d="M30.629 21.943l-8.229-8.229 0.914-4.571h0.914c1.179-0.1 2.098-1.082 2.098-2.278 0-1.262-1.023-2.286-2.286-2.286s-2.286 1.023-2.286 2.286c0 0.328 0.069 0.639 0.193 0.921l-0.006-0.015-5.029 0.457-7.771-8.229h-0.914l-1.371 1.829v0.457l0.457 0.914c-1.11 2.049-1.762 4.486-1.762 7.076 0 4.209 1.723 8.015 4.503 10.751l0.002 0.002v6.857h-6.4c-1.371 0-2.743 0.914-2.743 2.743v0.914l0.914 0.457h24.229l0.457-0.457v-0.914c0-1.829-0.914-2.743-2.286-2.743h-6.4v-2.743c0.748 0.132 1.61 0.207 2.49 0.207 2.787 0 5.398-0.756 7.638-2.074l-0.071 0.038 0.457 0.914 0.457 0.457 1.829-1.829v-0.914zM23.314 6.4c0.133-0.068 0.291-0.108 0.457-0.108 0.565 0 1.022 0.458 1.022 1.022 0 0.398-0.227 0.743-0.559 0.912l-0.006 0.003c-0.133 0.068-0.291 0.108-0.457 0.108-0.565 0-1.022-0.458-1.022-1.022 0-0.398 0.227-0.743 0.559-0.912l0.006-0.003zM21.943 9.6l-0.457 3.2-1.371-1.371 1.829-1.829zM21.486 8.686l-1.829 2.286-1.829-1.829 3.657-0.457zM24.229 28.8c0.457 0 1.371 0.914 1.371 1.829v0.457h-23.314v-0.457c0-0.914 0.457-1.829 1.371-1.829h20.571zM16.457 26.514v1.371h-5.029v-1.371h5.029zM11.429 25.6v-4.114c0-1.371 0.914-2.286 2.286-2.286 1.829 0 2.743 0.914 2.743 2.286v4.114h-5.029zM17.829 23.771v-2.286c0-1.829-1.829-3.2-4.114-3.2-1.371 0-2.286 0.457-3.2 1.829-4.114-4.571-5.029-10.971-2.286-16l18.743 18.743c-2.743 1.371-6.4 1.829-9.143 0.914zM28.8 23.314l-0.457-0.914-20.571-20.571 0.914-0.457 21.029 21.029-0.914 0.914z"></path>
<path fill="#2196f3" style="fill: var(--color3, #2196f3)" d="M13.714 20.114c-0.567 0.318-0.943 0.915-0.943 1.6s0.377 1.282 0.934 1.595l0.009 0.005c0.884 0 1.6-0.716 1.6-1.6s-0.716-1.6-1.6-1.6v0zM14.171 22.4c-0.067 0.034-0.145 0.054-0.229 0.054-0.282 0-0.511-0.229-0.511-0.511 0-0.199 0.114-0.371 0.28-0.456l0.003-0.001c0.067-0.034 0.145-0.054 0.229-0.054 0.282 0 0.511 0.229 0.511 0.511 0 0.199-0.114 0.371-0.28 0.456l-0.003 0.001z"></path>
</symbol>
<symbol id="icon-clock" viewBox="0 0 32 32">
<path fill="#212121" style="fill: var(--color2, #212121)" d="M31.086 15.086c-0.142-8.222-6.841-14.833-15.084-14.833-8.332 0-15.086 6.754-15.086 15.086 0 6.698 4.365 12.376 10.405 14.346l0.107 0.030h0.457l0.457-0.457 3.657-11.886c0.827-0.212 1.428-0.95 1.428-1.829 0-1.041-0.844-1.885-1.885-1.885-0.162 0-0.32 0.021-0.47 0.059l0.013-0.003-5.029-5.029c-0.117-0.117-0.279-0.189-0.457-0.189-0.357 0-0.646 0.289-0.646 0.646 0 0.179 0.072 0.34 0.189 0.457l5.029 5.029c-0.457 0.457 0 1.829 0.457 2.286l-3.657 11.429c-5.571-1.993-9.486-7.227-9.486-13.374 0-7.827 6.345-14.171 14.171-14.171s14.171 6.345 14.171 14.171c0 5.715-3.383 10.639-8.255 12.881l-0.088 0.036v-1.829c0-0.379-0.307-0.686-0.686-0.686s-0.686 0.307-0.686 0.686v0l-3.657 3.2c-0.379 0-0.686 0.307-0.686 0.686s0.307 0.686 0.686 0.686v0l5.029 1.371c0.117 0.117 0.279 0.189 0.457 0.189 0.357 0 0.646-0.289 0.646-0.646 0-0.179-0.072-0.34-0.189-0.457v0l-0.457-1.829c5.486-2.286 9.143-7.771 9.143-14.171zM16 14.629c0.379 0 0.686 0.307 0.686 0.686s-0.307 0.686-0.686 0.686v0c-0.379 0-0.686-0.307-0.686-0.686s0.307-0.686 0.686-0.686v0zM18.286 29.714l1.829-2.286 0.914 3.2-2.743-0.914z"></path>
<path fill="#2196f3" style="fill: var(--color3, #2196f3)" d="M15.543 3.2v1.371c0 0.252 0.205 0.457 0.457 0.457s0.457-0.205 0.457-0.457v0-1.371c0-0.252-0.205-0.457-0.457-0.457s-0.457 0.205-0.457 0.457v0zM3.657 14.629c-0.379 0-0.686 0.307-0.686 0.686s0.307 0.686 0.686 0.686v0h1.371c0.379 0 0.686-0.307 0.686-0.686s-0.307-0.686-0.686-0.686v0h-1.371zM27.886 16c0.379 0 0.686-0.307 0.686-0.686s-0.307-0.686-0.686-0.686v0h-0.914c-0.379 0-0.686 0.307-0.686 0.686s0.307 0.686 0.686 0.686v0h0.914z"></path>
</symbol>
<symbol id="icon-pc" viewBox="0 0 32 32">
<path fill="#2196f3" style="fill: var(--color3, #2196f3)" d="M15.086 15.086h0.914v4.571h-0.914v-4.571zM19.2 16.914h0.914v2.743h-0.914v-2.743zM10.514 18.743h1.371v0.914h-1.371v-0.914zM7.314 18.286h1.371v1.371h-1.371v-1.371z"></path>
<path fill="#212121" style="fill: var(--color2, #212121)" d="M1.371 28.343h25.6c0.914 0 1.829-0.914 1.829-1.829v-1.829c0-0.914-0.914-1.829-1.829-1.829h-0.457v-13.257l3.2-2.743c0.221 0.102 0.48 0.162 0.752 0.162 1.010 0 1.829-0.819 1.829-1.829s-0.819-1.829-1.829-1.829c-1.010 0-1.829 0.819-1.829 1.829 0 0.273 0.060 0.531 0.167 0.764l-0.005-0.011-2.286 2.286v-1.371c0-0.914-0.457-1.371-1.371-1.371h-21.486c-0.914 0-1.371 0.457-1.371 1.371v16h-0.914c-0.457 0-1.371 0.914-1.371 1.829v1.829c0 0.914 0.914 1.829 1.371 1.829zM30.171 5.029c0.252 0 0.457 0.205 0.457 0.457s-0.205 0.457-0.457 0.457v0c-0.252 0-0.457-0.205-0.457-0.457s0.205-0.457 0.457-0.457v0zM3.2 6.857l0.457-0.457h21.486l0.457 0.457v2.286l-0.914 0.914v-1.829l-0.914-0.914h-19.2l-0.457 0.914v13.257l0.457 0.457h19.2l0.914-0.457v-9.6l0.914-1.371v12.343h-22.4v-16zM7.771 13.714c-0.507 0.257-0.848 0.775-0.848 1.371 0 0.847 0.686 1.533 1.533 1.533 0.25 0 0.486-0.060 0.694-0.166l-0.009 0.004 1.829 0.914h0.457l4.114-4.571 3.657 3.2h0.914l3.2-3.2v8.229h-17.829v-12.343h17.829v2.743l-3.657 3.2-3.657-2.743h-0.914l-4.114 4.571-1.371-0.914c0-0.914-0.914-1.829-1.829-1.829zM8.686 15.543c0 0.379-0.307 0.686-0.686 0.686s-0.686-0.307-0.686-0.686v0c0-0.379 0.307-0.686 0.686-0.686s0.686 0.307 0.686 0.686v0zM11.886 24.229h5.029v0.457l-0.457 0.457h-4.114l-0.457-0.457v-0.457zM0.914 24.686l0.457-0.457h9.143v0.457c0 0.914 0.914 1.371 1.829 1.371h4.114c0.914 0 1.829-0.457 1.829-1.371v-0.457h8.686l0.914 0.457v1.829l-0.914 0.914h-25.6l-0.457-0.914v-1.829z"></path>
</symbol>
<symbol id="icon-instagram" viewBox="0 0 32 32">
<path fill="#fff" style="fill: var(--color4, #fff)" d="M32.003 16.001c0.009 0.2 0.014 0.434 0.014 0.67 0 8.837-7.164 16.001-16.001 16.001-4.589 0-8.726-1.931-11.644-5.026l-0.007-0.008c-3.102-2.925-5.034-7.063-5.034-11.651 0-8.837 7.164-16.001 16.001-16.001 0.236 0 0.47 0.005 0.703 0.015l-0.033-0.001c8.837 0 16.001 7.164 16.001 16.001v0z"></path>
<path fill="#afb1b8" style="fill: var(--color5, #afb1b8)" d="M23.275 13.092v-2.182l-1.455-0.727-0.727-0.727-2.182-0.727c-2.846 0.027-5.611 0.291-8.3 0.772l0.3-0.044-1.455 1.455-0.727 2.182c0.027 2.846 0.291 5.611 0.772 8.3l-0.044-0.3 1.455 1.455 2.182 0.727c2.859-0.044 5.623-0.307 8.317-0.773l-0.316 0.045 2.182-1.455v-2.182c0.051-0.869 0.080-1.886 0.080-2.909s-0.029-2.040-0.086-3.049l0.006 0.14zM21.82 18.911v1.455l-1.455 1.455h-1.455c-1.088 0.083-2.357 0.13-3.637 0.13s-2.548-0.047-3.805-0.14l0.168 0.010-1.455-1.455v-1.455c-0.083-1.088-0.13-2.357-0.13-3.637s0.047-2.548 0.14-3.805l-0.010 0.168 1.455-1.455h1.455c1.088-0.083 2.357-0.13 3.637-0.13s2.548 0.047 3.805 0.14l-0.168-0.010 1.455 1.455v1.455c0.053 0.869 0.083 1.886 0.083 2.909s-0.030 2.040-0.090 3.048l0.007-0.139z"></path>
<path fill="#afb1b8" style="fill: var(--color5, #afb1b8)" d="M16.001 12.365c-2.008 0-3.637 1.628-3.637 3.637s1.628 3.637 3.637 3.637v0c2.008 0 3.637-1.628 3.637-3.637s-1.628-3.637-3.637-3.637v0zM16.001 18.183c-1.205 0-2.182-0.977-2.182-2.182s0.977-2.182 2.182-2.182v0c1.205 0 2.182 0.977 2.182 2.182s-0.977 2.182-2.182 2.182v0zM21.093 12.365c0 0.603-0.488 1.091-1.091 1.091s-1.091-0.488-1.091-1.091v0c0-0.603 0.488-1.091 1.091-1.091s1.091 0.488 1.091 1.091v0z"></path>
</symbol>
<symbol id="icon-twitter" viewBox="0 0 32 32">
<path fill="#fff" style="fill: var(--color4, #fff)" d="M32.003 16.001c0.009 0.2 0.014 0.434 0.014 0.67 0 8.837-7.164 16.001-16.001 16.001-4.589 0-8.726-1.931-11.644-5.026l-0.007-0.008c-3.102-2.925-5.034-7.063-5.034-11.651 0-8.837 7.164-16.001 16.001-16.001 0.236 0 0.47 0.005 0.703 0.015l-0.033-0.001c8.837 0 16.001 7.164 16.001 16.001v0z"></path>
<path fill="#afb1b8" style="fill: var(--color5, #afb1b8)" d="M23.275 11.637h-1.455l0.727-1.455-1.455 0.727c-0.515-0.889-1.462-1.477-2.546-1.477-1.619 0-2.932 1.313-2.932 2.932 0 0.535 0.143 1.037 0.394 1.469l-0.008-0.014c-2.909 0-5.091-1.455-6.546-2.909-0.117 0.303-0.184 0.653-0.184 1.019 0 1.145 0.661 2.135 1.622 2.61l0.017 0.008h-1.455c0 1.455 0.727 2.182 2.182 2.909-0.218 0.059-0.469 0.092-0.727 0.092s-0.509-0.034-0.748-0.097l0.020 0.005c0.727 0.727 1.455 2.182 2.909 2.182-0.871 0.548-1.931 0.874-3.067 0.874-0.46 0-0.907-0.053-1.337-0.154l0.039 0.008 4.364 1.455c4.82 0 8.728-3.908 8.728-8.728v0l1.455-1.455z"></path>
</symbol>
<symbol id="icon-facebook" viewBox="0 0 32 32">
<path fill="#fff" style="fill: var(--color4, #fff)" d="M32.003 16.001c0.009 0.2 0.014 0.434 0.014 0.67 0 8.837-7.164 16.001-16.001 16.001-4.589 0-8.726-1.931-11.644-5.026l-0.007-0.008c-3.102-2.925-5.034-7.063-5.034-11.651 0-8.837 7.164-16.001 16.001-16.001 0.236 0 0.47 0.005 0.703 0.015l-0.033-0.001c8.837 0 16.001 7.164 16.001 16.001v0z"></path>
<path fill="#afb1b8" style="fill: var(--color5, #afb1b8)" d="M18.183 10.91h1.455v-2.182h-2.182c-1.455 0-2.909 1.455-2.909 3.637v2.182h-2.182v2.182h2.182v6.546h2.909v-6.546h1.455l0.727-2.182h-2.182v-2.182l0.727-1.455z"></path>
</symbol>
<symbol id="icon-linkedin" viewBox="0 0 32 32">
<path fill="#fff" style="fill: var(--color4, #fff)" d="M32.003 16.001c0.009 0.2 0.014 0.434 0.014 0.67 0 8.837-7.164 16.001-16.001 16.001-4.589 0-8.726-1.931-11.644-5.026l-0.007-0.008c-3.102-2.925-5.034-7.063-5.034-11.651 0-8.837 7.164-16.001 16.001-16.001 0.236 0 0.47 0.005 0.703 0.015l-0.033-0.001c8.837 0 16.001 7.164 16.001 16.001v0z"></path>
<path fill="#afb1b8" style="fill: var(--color5, #afb1b8)" d="M23.275 23.275v-5.091c0-2.909-0.727-5.091-3.637-5.091l-2.909 1.455v-0.727h-2.909v9.455h2.909v-5.091c0-0.727 0.727-2.182 2.182-2.182s1.455 1.455 1.455 2.182v5.091h2.909zM8.728 13.819h2.909v9.455h-2.909v-9.455zM10.183 8.728l-1.455 1.455c0 1.455 0.727 2.182 1.455 2.182 1.455 0 2.182-0.727 2.182-2.182 0-0.727-0.727-1.455-2.182-1.455z"></path>
</symbol>
<symbol id="icon-yago" viewBox="0 0 57 32">
<path fill="#afb1b8" style="fill: var(--color5, #afb1b8)" d="M20.268 3.733l3.734 3.734h-6.934v17.068h18.134v-6.4l3.734 3.2v-17.601h-18.668zM35.202 17.6l-10.667-10.134h10.667v10.134zM32.002 21.867h-12.267v-11.734h1.067v11.201h11.201v0.533zM22.935 26.667l-0.533 1.067-0.533-1.067h-0.533l0.533 1.067v1.067h0.533v-1.067l0.533-1.067zM23.468 28.801v-0.533h0.533l0.533 0.533-0.533-2.133h-0.533l-0.533 2.133h0.533zM24.001 27.201v0.533h-0.533l0.533-0.533zM25.601 27.734v0.533l0.533 0.533 0.533-0.533v0.533h0.533l-1.067-1.067 0.533-0.533c0.045-0.076 0.071-0.169 0.071-0.267s-0.027-0.19-0.073-0.269l0.001 0.003h-1.067v1.067zM26.135 28.267h-0.533l0.533-0.533v0.533zM29.335 28.267v-0.533h-0.533v0.533h-0.533v-1.067h1.067v-0.533h-1.067l-0.533 0.533v1.067l0.533 0.533h0.533l0.533-0.533zM30.935 28.267v-1.067c0-0.295-0.239-0.533-0.533-0.533v0h-0.533v0.533l-0.533 0.533 1.067 1.067 0.533-0.533zM30.935 27.201v1.067h-1.067v-1.067h1.067z"></path>
</symbol>
<symbol id="icon-company" viewBox="0 0 57 32">
<path fill="#afb1b8" style="fill: var(--color5, #afb1b8)" d="M26.668 3.199h0.533l1.6 0.533v-1.6l0.11 0.028c-0.872-0.262-1.776-0.45-2.776-0.562h0.001c-0.006 0-0.012 0-0.019 0-2.938 0-5.692 0.792-7.983 2.133v15.467l-0.084 0.044c2.082-1.19 4.44-1.954 7.017-2.177h1.067v-1.6l-0.033 0.001c-2.087 0.069-4.095 0.454-5.834 1.066h-0.533v-11.734c1.6-1.067 3.734-1.6 5.867-1.6l-0.014 0c0.093-0.002 0.187-0.003 0.281-0.003s0.187 0.001 0.267 0.003h0.533zM29.335 4.799h1.067c2.944-0.023 5.699-0.811 8.081-2.176l-0.081 0.043v14.934c-2.189 1.198-4.797 1.903-7.568 1.903-1.096 0-2.167-0.11-3.202-0.32l0.103 0.017v-14.934c0.434 0.186 0.967 0.369 1.514 0.514l0.086 0.019zM36.802 4.799h-0.533l-1.067 0.533c-1.366 0.369-2.935 0.581-4.553 0.581-0.462 0-0.92-0.017-1.374-0.051l0.060 0.004h-0.533v12.267h1.6c2.343-0.034 4.541-0.621 6.479-1.638l-0.079 0.038v-11.734z"></path>
<path fill="#afb1b8" style="fill: var(--color5, #afb1b8)" d="M19.201 24c-0.076-0.045-0.169-0.071-0.267-0.071s-0.19 0.027-0.269 0.073l0.003-0.001h-0.533c-0.238 0.109-0.424 0.296-0.531 0.527l-0.003 0.007v2.667h0.533v0.533h0.533c0.326-0.187 0.542-0.533 0.542-0.929 0-0.049-0.003-0.096-0.010-0.143l0.001 0.005h-0.533v0.533c-0.076 0.045-0.169 0.071-0.267 0.071s-0.19-0.027-0.269-0.073l0.003 0.001v-2.667c0.076-0.045 0.169-0.071 0.267-0.071s0.19 0.027 0.269 0.073l-0.003-0.001v0.533h0.533v-0.533c0.021-0.080 0.034-0.172 0.034-0.267s-0.012-0.187-0.036-0.274l0.002 0.007zM22.401 24c-0.153-0.090-0.337-0.143-0.533-0.143s-0.38 0.053-0.538 0.146l0.005-0.003h-0.533v3.2l0.533 0.533c0.080 0.021 0.172 0.034 0.267 0.034s0.187-0.012 0.274-0.036l-0.007 0.002 0.533-0.533c0.021-0.080 0.034-0.172 0.034-0.267s-0.012-0.187-0.036-0.274l0.002 0.007v-2.667zM21.868 26.667c0.045 0.076 0.071 0.169 0.071 0.267s-0.027 0.19-0.073 0.269l0.001-0.003c-0.076 0.045-0.169 0.071-0.267 0.071s-0.19-0.027-0.269-0.073l0.003 0.001c-0.045-0.076-0.071-0.169-0.071-0.267s0.027-0.19 0.073-0.269l-0.001 0.003v-2.133c0.076-0.045 0.169-0.071 0.267-0.071s0.19 0.027 0.269 0.073l-0.003-0.001v2.133zM26.135 27.734v-3.734h-0.533l-0.533 1.6-0.533-1.6h-0.533v3.734h0.533v-2.133l0.533 1.067 0.533-1.067v2.133h0.533zM29.335 24h-1.6v3.734h0.533v-1.6h1.067v-0.533c0.034-0.16 0.054-0.345 0.054-0.533s-0.020-0.373-0.057-0.551l0.003 0.017v-0.533zM28.802 25.067v0.533h-0.533v-1.067h0.533v0.533zM32.002 24h-0.533l-1.067 3.734h0.533l0.533-1.067h0.533v1.067h0.533l-0.533-3.734zM31.468 26.134v-1.067l0.533 1.067h-0.533zM35.202 26.134l-1.067-2.133v1.6h0.533l0.533 2.133h0.533v-3.734h-0.533v2.133zM38.402 24l-0.533 1.6-0.533-1.6h-0.533l1.067 2.133v1.6h0.533v-1.6l0.533-2.133h-0.533zM17.601 28.801v0.533h0.533v-1.067h-0.533v0.533zM19.734 28.267l-0.533 1.067h1.067l-0.533-1.067zM21.868 28.801v0.533l-0.533-0.533h1.067l-0.533-0.533-0.533 0.533v0.533c0.076 0.045 0.169 0.071 0.267 0.071s0.19-0.027 0.269-0.073l-0.003 0.001h0.533v-0.533h-0.533zM24.001 28.267v0zM25.601 28.267v0zM27.735 28.801l-0.533-0.533v0.533l0.533 0.533v-0.533zM29.335 28.801v-0.533h-0.533v1.067h0.533v-0.533zM33.068 28.801h-0.533v0h0.533v0zM34.669 28.801h0.533v-0.533h-0.533v0.533zM36.802 28.801v-0.533h-0.533v0.533h0.533v0zM36.802 28.801v0zM38.402 28.801h0.533v-0.533h-0.533v0.533z"></path>
</symbol>
<symbol id="icon-Logo-20-1" viewBox="0 0 57 32">
<path fill="#afb1b8" style="fill: var(--color5, #afb1b8)" d="M19.201 26.134h0.533l-0.533 0.533h-1.067v-0.533h-0.533c-0.090-0.153-0.143-0.337-0.143-0.533s0.053-0.38 0.146-0.538l-0.003 0.005h0.533v-0.533c0.159-0.058 0.342-0.091 0.533-0.091s0.375 0.034 0.544 0.095l-0.011-0.004 0.533 0.533h-0.533c-0.080-0.021-0.172-0.034-0.267-0.034s-0.187 0.012-0.274 0.036l0.007-0.002h-0.533v1.067h1.067zM22.935 25.601v0.533h-0.533v0.533h-1.067l-0.533-0.533v-1.067l0.533-0.533h1.067v0.533c0.238 0.109 0.424 0.296 0.531 0.527l0.003 0.007zM22.401 25.601v-0.533c-0.076-0.045-0.169-0.071-0.267-0.071s-0.19 0.027-0.269 0.073l0.003-0.001h-1.067v1.067c0.076 0.045 0.169 0.071 0.267 0.071s0.19-0.027 0.269-0.073l-0.003 0.001h1.067v-0.533zM25.068 26.134l1.067-1.6v0.533l-1.067 1.067-1.067-1.067v1.6-2.133h0.533l0.533 1.6zM27.735 25.601v1.067-2.133h1.067v1.067l-0.533 0.533-0.533-0.533zM27.735 25.601h1.067v-0.533h-1.067v0.533zM32.002 26.667h-0.533v-0.533h-1.067l-0.533 0.533 0.533-2.133h0.533l1.067 2.133zM30.402 26.134h0.533v-1.067l-0.533 1.067zM33.068 24.534l1.067 1.6v-1.6h0.533v2.133h-0.533l-1.067-1.6v1.6-2.133zM36.802 25.601v1.067h-0.533v-1.067l-0.533-1.067h0.533v1.067c0.080-0.021 0.172-0.034 0.267-0.034s0.187 0.012 0.274 0.036l-0.007-0.002zM25.068 21.334c2.133-0.533 3.734-1.6 4.8-3.2 1.6-1.6 2.133-3.734 2.133-5.334l-2.133-2.133c0 2.133 0 4.267-1.067 5.867-0.533 2.133-2.133 3.734-3.734 4.8z"></path>
<path fill="#afb1b8" style="fill: var(--color5, #afb1b8)" d="M24.001 21.334c2.133-1.067 3.734-2.667 4.267-4.8 1.067-2.133 1.067-4.267 0.533-6.4l-3.2-2.667c0.983 1.68 1.564 3.698 1.564 5.853 0 3.102-1.204 5.923-3.17 8.021l0.006-0.006zM34.669 14.933c-0.533 2.133-1.6 3.734-3.734 5.334l-1.6 1.067 3.734-2.133 2.667-3.2-1.067-1.067z"></path>
<path fill="#afb1b8" style="fill: var(--color5, #afb1b8)" d="M34.135 14.4l-1.6-1.6c0 2.133-1.067 3.734-2.133 5.334s-2.133 2.667-4.267 3.2h1.6l4.267-2.667 2.133-4.267zM24.535 6.399l-2.133-1.6c-2.133 0.533-3.734 1.6-4.8 3.2-1.067 1.067-1.6 3.2-1.6 4.8 0 2.133 0.533 3.734 2.133 5.334 1.067 1.6 3.2 2.667 5.334 3.2 2.133-2.133 3.2-4.8 3.2-7.467s-0.533-5.334-2.133-7.467zM38.935 14.4c0-2.667-1.067-4.8-2.667-6.4-1.881-1.697-4.386-2.736-7.133-2.736-1.266 0-2.481 0.221-3.608 0.626l0.074-0.023 12.801 11.734 0.533-3.2z"></path>
</symbol>
<symbol id="icon-foster" viewBox="0 0 57 32">
<path fill="#2196f3" style="fill: var(--color3, #2196f3)" d="M12.801 11.2c-1.067 0-2.133 1.067-2.133 2.133s1.067 2.133 2.133 2.133c1.6 0 2.133-1.067 2.133-2.133s-0.533-2.133-2.133-2.133zM29.868 10.666c0-1.6-0.533-3.2-1.6-4.267l-4.8-1.6c-2.133 0-3.734 0.533-4.8 1.6-1.6 1.067-2.133 2.667-2.133 4.267v8.534s13.334-1.067 13.334-8.534zM5.867 22.4c0 1.067 0.533 2.133 1.6 2.667l3.2 1.067 3.2-1.067c1.067-0.533 1.067-1.6 1.067-2.667v-6.4s-9.067 1.067-9.067 6.4zM10.667 23.467l-1.067-0.533v-0.533l-0.533-0.533 0.533-0.533h2.133c0.113 0.167 0.18 0.372 0.18 0.593 0 0.463-0.294 0.856-0.706 1.004l-0.007 0.002-0.533 0.533zM19.734 22.4h-0.533v1.067h-0.533v-2.133h1.6v0.533h-1.067v0.533h0.533zM22.401 22.4l-0.533 0.533c-0.109 0.238-0.296 0.424-0.527 0.531l-0.007 0.003h-0.533l-0.533-0.533v-1.067c0.187-0.326 0.533-0.542 0.929-0.542 0.049 0 0.096 0.003 0.143 0.010l-0.005-0.001h0.533v0.533l0.533 0.533zM21.868 22.4v-0.533h-1.067v1.067l0.533 0.533 0.533-0.533v-0.533zM23.468 22.934v-0.533h-0.533l-0.533-0.533v-0.533h1.6v0.533h-1.067l0.533 0.533h0.533v1.067h-1.6v-0.533h0.533l0.533 0.533v-0.533zM26.135 21.867h-0.533v1.6h-0.533v-1.6h-0.533v-0.533h1.6v0.533zM27.735 22.4h-0.533v1.067h-0.533v-2.133h1.6v0.533h-1.067v0.533h0.533zM29.335 22.934h-0.533v0.533h-0.533v-2.133h1.6v1.067h-0.533l0.533 1.067h-0.533v-0.533zM28.802 22.4h0.533v-0.533h-0.533v0.533zM31.468 22.934v0.533h-0.533v-2.133h1.6v0.533h0.533l-1.067 1.067h-0.533zM31.468 22.4h1.067v-0.533h-1.067v0.533zM34.669 22.4h-1.067v1.067h-0.533v-2.133h1.6v0.533h-1.067v0.533h1.067zM36.802 21.867h-0.533v1.6h-0.533v-1.6h-1.067v-0.533h2.133v0.533zM38.402 22.4h-1.067v1.067h-0.533v-2.133h1.6v0.533h-1.067v0.533h1.067zM39.469 22.934v0.533h-0.533v-2.133h1.6v1.067h-0.533l0.533 1.067h-0.533l-0.533-0.533zM39.469 22.4h0.533v-0.533h-0.533v0.533zM42.136 22.934l-0.533-0.533h-0.533v-1.067h1.067l0.533 0.533h-1.067v0.533h0.533l0.533 0.533-0.533 0.533h-1.067l-0.533-0.533h0.533l0.533 0.533 0.533-0.533z"></path>
</symbol>
<symbol id="icon-brand" viewBox="0 0 57 32">
<path fill="#afb1b8" style="fill: var(--color5, #afb1b8)" d="M14.401 24v1.067h-2.667v-3.2h1.6l0.533 0.533h0.533v1.067h-0.533l0.533 0.533zM12.267 23.467h1.067l0.533-0.533-0.533-0.533h-1.067v1.067zM13.334 24.534h0.533v-0.533h-1.6v0.533h1.067zM17.601 25.067l-1.067-1.067h-0.533v1.067h-0.533v-3.2h1.6l1.067 1.067v0.533l-1.067 0.533 1.067 1.067h-0.533zM16.001 23.467h1.067l0.533-0.533h-0.533v-0.533h-1.067v1.067zM21.334 24.534h-1.6v0.533h-1.067l1.6-3.2h0.533l1.6 3.2h-1.067v-0.533zM21.334 24l-0.533-1.067-0.533 1.067h1.067zM26.135 25.067h-0.533l-1.6-2.133v2.133h-0.533v-3.2h0.533l1.6 2.133v-2.133h0.533v3.2zM30.402 24.534l-0.533 0.533h-2.133v-3.2h1.067l1.067 0.533 0.533 0.533c0.135 0.23 0.214 0.505 0.214 0.8s-0.080 0.571-0.218 0.808l0.004-0.008zM29.335 24.534l0.533-1.067-1.067-1.067h-0.533v2.133h1.067zM21.868 3.733s9.067 3.2 9.067 8v7.467s-9.601-3.2-9.067-7.467v-8zM38.935 17.6c2.133-1.067 4.267-2.133 6.4-2.133v-2.667c-2.667 1.067-4.8 2.667-6.4 4.8z"></path>
<path fill="#afb1b8" style="fill: var(--color5, #afb1b8)" d="M37.869 18.133c1.6-2.667 4.267-4.8 7.467-5.867v-6.934s-13.334 4.8-13.334 11.201v11.201l1.6-0.533v-1.067c0.533-3.2 2.133-5.867 4.267-8z"></path>
<path fill="#afb1b8" style="fill: var(--color5, #afb1b8)" d="M36.802 22.4l0.533-2.133c-1.557 1.688-2.55 3.918-2.666 6.378l-0.001 0.023 2.667-1.067-0.533-3.2zM37.335 22.4v3.2c3.734-2.133 8-5.334 8-9.067-2.667 0-5.334 1.067-6.934 2.667l-1.067 3.2z"></path>
</symbol>
<symbol id="icon-companytagline" viewBox="0 0 57 32">
<path fill="#afb1b8" style="fill: var(--color5, #afb1b8)" d="M28.268 14.4v-3.2l1.067-0.533h1.067l0.533 1.067v0.533h-1.067v-1.067h-0.533v3.2h0.533v-1.067h1.067v0.533l-0.533 0.533-1.067 0.533-1.067-0.533zM32.002 14.4v-3.734h2.133l0.533 1.067v1.6l-0.533 1.067-1.067 0.533-1.067-0.533zM33.602 14.4v-3.2h-0.533l-0.533 0.533v2.133l0.533 0.533c0.077 0.045 0.169 0.071 0.267 0.071s0.19-0.027 0.269-0.073l-0.003 0.001zM35.735 10.666h1.067l0.533 3.2 0.533-3.2h1.067v4.267h-0.533v-3.2l-0.533 3.2h-0.533l-1.067-3.2v3.2h-0.533v-4.267zM40.002 10.666h1.6c1.067 0 1.067 0.533 1.067 1.067 0 1.067 0 1.067-1.067 1.067h-0.533v2.133h-1.067v-4.267zM41.602 12.266h0.533v-1.067h-1.067v1.067h0.533zM44.269 10.666h1.067l1.067 4.267h-1.067v-1.067h-1.067v1.067h-1.067l1.067-4.267zM44.802 13.333v-1.6l-0.533 1.6h0.533zM46.936 10.666h0.533l1.6 2.667v-2.667h0.533v4.267h-0.533l-1.067-2.667v2.667h-1.067v-4.267zM51.203 13.333l-1.067-2.667h1.067l0.533 1.6 0.533-1.6h1.067l-1.067 2.667v1.6h-1.067v-1.6zM29.868 17.067h-0.533v1.6h-0.533v-1.6h1.067zM32.002 18.667l-0.533-0.533h-1.067v0.533h-0.533l1.067-1.6h0.533l0.533 1.6zM30.935 18.133h0.533v-1.067h-0.533v1.067zM33.602 18.667h0.533v-1.067h0.533v1.067c-0.080 0.014-0.172 0.022-0.267 0.022s-0.187-0.008-0.276-0.024l0.010 0.001h-1.067l-0.533-0.533v-0.533l0.533-0.533c0.159-0.058 0.342-0.091 0.533-0.091s0.375 0.034 0.544 0.095l-0.011-0.004c0.080-0.021 0.172-0.034 0.267-0.034s0.187 0.012 0.274 0.036l-0.007-0.002h-0.533c-0.080-0.021-0.172-0.034-0.267-0.034s-0.187 0.012-0.274 0.036l0.007-0.002h-0.533v1.6c0.077 0.045 0.169 0.071 0.267 0.071s0.19-0.027 0.269-0.073l-0.003 0.001zM36.802 18.667h-0.533v-1.6h0.533v1.6zM38.935 18.667h-0.533v-1.6h0.533v1.6zM40.002 17.067l1.067 1.067v-1.067h0.533v1.6h-0.533l-1.067-1.6v1.6h-0.533v-1.6h0.533zM43.736 17.067h-1.067v0.533h1.067v0.533h-1.067v0.533h-0.533v-1.6h1.6zM11.201 4.799l13.867 3.2v11.734l-13.867-3.2v-11.734zM10.667 3.733v13.334l15.467 3.734v-13.334l-15.467-3.734z"></path>
<path fill="#afb1b8" style="fill: var(--color5, #afb1b8)" d="M18.668 27.201l-15.467-3.734v-13.867l15.467 4.267v13.334z"></path>
<path fill="#afb1b8" style="fill: var(--color5, #afb1b8)" d="M10.667 4.266l13.334 3.734-5.334 4.8-13.867-3.2 5.867-5.334zM10.667 3.733l-7.467 5.867 15.468 4.267 7.467-6.4-15.467-3.734zM19.734 26.134l6.4-5.334-6.4-1.6v6.934z"></path>
</symbol>
<symbol id="icon-astronaut" viewBox="0 0 32 32">
<path fill="#2196f3" style="fill: var(--color3, #2196f3)" d="M31.974 4.524c-0.063-0.193-0.229-0.333-0.43-0.363l-1.91-0.278-0.855-1.731c-0.179-0.365-0.777-0.365-0.956 0l-0.855 1.731-1.91 0.278c-0.201 0.029-0.367 0.17-0.431 0.363-0.062 0.193-0.011 0.405 0.135 0.547l1.383 1.348-0.326 1.903c-0.034 0.2 0.048 0.402 0.212 0.522 0.166 0.121 0.382 0.135 0.562 0.040l1.709-0.899 1.709 0.899c0.078 0.041 0.164 0.061 0.249 0.061 0.11 0 0.221-0.034 0.314-0.102 0.164-0.119 0.246-0.322 0.212-0.522l-0.326-1.903 1.383-1.348c0.145-0.142 0.197-0.354 0.135-0.547zM29.511 5.851c-0.125 0.122-0.183 0.299-0.153 0.472l0.191 1.114-1-0.526c-0.078-0.041-0.163-0.061-0.249-0.061s-0.17 0.020-0.249 0.061l-1.001 0.526 0.191-1.114c0.030-0.173-0.028-0.349-0.153-0.472l-0.81-0.789 1.119-0.163c0.174-0.025 0.324-0.134 0.402-0.292l0.5-1.013 0.5 1.013c0.078 0.157 0.228 0.267 0.402 0.292l1.119 0.163-0.809 0.789z"></path>
<path fill="#2196f3" style="fill: var(--color3, #2196f3)" d="M26.134 20.522h-1.067v1.067h1.067v-1.067z"></path>
<path fill="#2196f3" style="fill: var(--color3, #2196f3)" d="M26.134 22.656h-1.067v1.067h1.067v-1.067z"></path>
<path fill="#2196f3" style="fill: var(--color3, #2196f3)" d="M27.2 21.589h-1.067v1.067h1.067v-1.067z"></path>
<path fill="#2196f3" style="fill: var(--color3, #2196f3)" d="M25.067 21.589h-1.067v1.067h1.067v-1.067z"></path>
<path fill="#2196f3" style="fill: var(--color3, #2196f3)" d="M22.4 26.389h-1.067v1.067h1.067v-1.067z"></path>
<path fill="#2196f3" style="fill: var(--color3, #2196f3)" d="M22.4 28.522h-1.067v1.067h1.067v-1.067z"></path>
<path fill="#2196f3" style="fill: var(--color3, #2196f3)" d="M23.467 27.456h-1.067v1.067h1.067v-1.067z"></path>
<path fill="#2196f3" style="fill: var(--color3, #2196f3)" d="M21.333 27.456h-1.067v1.067h1.067v-1.067z"></path>
<path fill="#2196f3" style="fill: var(--color3, #2196f3)" d="M16 24.256h-1.067v1.067h1.067v-1.067z"></path>
<path fill="#2196f3" style="fill: var(--color3, #2196f3)" d="M16 26.389h-1.067v1.067h1.067v-1.067z"></path>
<path fill="#2196f3" style="fill: var(--color3, #2196f3)" d="M17.067 25.322h-1.067v1.067h1.067v-1.067z"></path>
<path fill="#2196f3" style="fill: var(--color3, #2196f3)" d="M14.933 25.322h-1.067v1.067h1.067v-1.067z"></path>
<path fill="#2196f3" style="fill: var(--color3, #2196f3)" d="M5.867 6.122h-1.067v1.067h1.067v-1.067z"></path>
<path fill="#2196f3" style="fill: var(--color3, #2196f3)" d="M5.867 8.255h-1.067v1.067h1.067v-1.067z"></path>
<path fill="#2196f3" style="fill: var(--color3, #2196f3)" d="M6.933 7.189h-1.067v1.067h1.067v-1.067z"></path>
<path fill="#2196f3" style="fill: var(--color3, #2196f3)" d="M4.8 7.189h-1.067v1.067h1.067v-1.067z"></path>
<path fill="#212121" style="fill: var(--color2, #212121)" d="M24.715 14.159c-0.287-0.388-0.709-0.637-1.188-0.705-0.481-0.068-0.956 0.058-1.34 0.352l-1.252 0.96-1.898 1.417-1.358-0.541c2.421-1.086 4.114-3.508 4.114-6.32 0-3.823-3.123-6.933-6.961-6.933s-6.961 3.11-6.961 6.933c0 1.386 0.414 2.674 1.12 3.758l-2.764-0.024c-0.002 0-0.003 0-0.005 0-0.009 0-0.015 0.004-0.023 0.005-0.053 0.002-0.105 0.013-0.155 0.031-0.013 0.005-0.026 0.008-0.038 0.013-0.006 0.003-0.013 0.003-0.019 0.006l-3.233 1.596c-0.001 0-0.001 0-0.001 0.001l-1.893 0.911c-0.021 0.009-0.042 0.021-0.063 0.035-0.755 0.502-1.012 1.489-0.598 2.295 0.22 0.429 0.595 0.745 1.056 0.889 0.178 0.055 0.359 0.083 0.539 0.083 0.29 0 0.577-0.071 0.839-0.211l1.388-0.738 2.264-1.169 1.357-0.008-5.442 5.416c-0.001 0.001-0.001 0.001-0.002 0.001l-1.339 1.333c-0.316 0.315-0.49 0.732-0.49 1.178s0.174 0.863 0.49 1.179c0.325 0.323 0.752 0.485 1.179 0.485s0.854-0.162 1.18-0.485l1.314-1.309 1.741-1.3 0.901 0.897-1.762 1.754c-0 0.001-0.001 0.001-0.002 0.001l-1.339 1.333c-0.316 0.315-0.49 0.732-0.49 1.178s0.174 0.863 0.49 1.179c0.325 0.323 0.753 0.485 1.18 0.485s0.855-0.162 1.18-0.485l3.482-3.467c0.001-0.001 0.001-0.001 0.001-0.002l1.010-1-0.004-0.004c0.006-0.006 0.015-0.009 0.022-0.015l5.166-5.658 3.471 0.494c0.025 0.004 0.050 0.005 0.075 0.005 0.065 0 0.127-0.015 0.187-0.038 0.018-0.006 0.033-0.015 0.050-0.023 0.019-0.010 0.039-0.015 0.058-0.027l3.213-2.133c0.012-0.008 0.018-0.021 0.029-0.029 0.013-0.010 0.029-0.014 0.041-0.026l1.271-1.191c0.662-0.62 0.753-1.635 0.212-2.362zM2.13 17.77c-0.173 0.093-0.37 0.111-0.558 0.052-0.187-0.058-0.338-0.186-0.427-0.358-0.161-0.314-0.068-0.695 0.214-0.902l1.314-0.632 0.449 1.312-0.992 0.528zM5.628 15.942l-1.548 0.8-0.439-1.283 2.027-1.001-0.040 1.484zM20.727 9.322c0 0.918-0.219 1.785-0.599 2.559l-4.181-1.899c-0.044-0.573-0.341-1.075-0.788-1.388l1.464-4.86c2.378 0.756 4.105 2.974 4.105 5.588zM8.938 9.322c0-3.235 2.644-5.867 5.894-5.867 0.253 0 0.5 0.021 0.745 0.052l-1.432 4.754c-0.019-0.001-0.037-0.006-0.057-0.006-1.033 0-1.873 0.837-1.873 1.867s0.84 1.867 1.873 1.867c0.694 0 1.294-0.383 1.618-0.945l3.862 1.755c-1.075 1.446-2.795 2.39-4.737 2.39-3.25 0-5.894-2.632-5.894-5.867zM14.894 10.122c0 0.441-0.362 0.8-0.806 0.8s-0.806-0.359-0.806-0.8c0-0.441 0.362-0.8 0.806-0.8s0.806 0.359 0.806 0.8zM2.465 25.146c-0.236 0.234-0.619 0.234-0.854 0.001-0.114-0.114-0.176-0.263-0.176-0.423s0.062-0.309 0.176-0.421l0.962-0.958 0.851 0.848-0.959 0.955zM5.679 28.88c-0.236 0.234-0.619 0.235-0.855 0.001-0.114-0.114-0.176-0.263-0.176-0.423s0.062-0.309 0.176-0.421l0.963-0.959 0.852 0.848-0.96 0.955zM9.16 25.411c-0.001 0-0.001 0-0.002 0.001l-1.765 1.76-0.852-0.848 1.763-1.755c0 0 0 0 0-0s0.001-0.001 0.002-0.001c0.040-0.040 0.065-0.088 0.090-0.135 0.007-0.014 0.020-0.026 0.026-0.040 0.017-0.041 0.019-0.085 0.026-0.129 0.003-0.025 0.014-0.047 0.014-0.073 0-0.036-0.013-0.070-0.020-0.106-0.006-0.032-0.006-0.065-0.019-0.095-0.020-0.050-0.055-0.094-0.091-0.138-0.010-0.012-0.014-0.027-0.025-0.038 0 0 0 0-0.001 0s-0.001-0.002-0.001-0.002l-1.607-1.6c-0.017-0.017-0.039-0.024-0.058-0.038-0.028-0.022-0.055-0.042-0.087-0.058-0.030-0.015-0.061-0.024-0.093-0.033-0.034-0.010-0.067-0.017-0.103-0.020-0.033-0.002-0.063 0.001-0.095 0.005-0.036 0.004-0.069 0.009-0.104 0.020-0.034 0.011-0.063 0.027-0.094 0.045-0.020 0.011-0.042 0.015-0.061 0.029l-1.773 1.324-0.901-0.897 2.399-2.386 4.361 4.289-0.928 0.919zM15.979 18.394c-0.015-0.002-0.030 0.004-0.045 0.003-0.039-0.002-0.076 0.001-0.115 0.007-0.030 0.005-0.059 0.011-0.088 0.021-0.034 0.012-0.065 0.028-0.097 0.047-0.030 0.018-0.057 0.037-0.083 0.061-0.013 0.011-0.028 0.017-0.040 0.029l-4.698 5.146-4.328-4.257 2.833-2.818c0.209-0.208 0.21-0.546 0.002-0.755-0.105-0.105-0.243-0.157-0.381-0.156v-0.001l-2.219 0.013 0.028-1.607 3.104 0.027c1.265 1.294 3.029 2.101 4.981 2.101 0.437 0 0.864-0.045 1.279-0.123 0.040 0.032 0.079 0.065 0.13 0.085l2.41 0.96 0.152 0.758 0.178 0.885-3.003-0.427zM20.020 18.572l-0.313-1.558 1.446-1.080 0.947 1.257-2.080 1.381zM23.774 15.741l-0.838 0.785-0.931-1.236 0.831-0.637c0.155-0.119 0.351-0.168 0.543-0.143 0.193 0.027 0.364 0.128 0.48 0.284 0.217 0.292 0.18 0.699-0.085 0.947z"></path>
<path fill="#212121" style="fill: var(--color2, #212121)" d="M13.602 18.544l-2.143-2.133c-0.207-0.207-0.545-0.207-0.753 0l-2.142 2.133c-0.1 0.101-0.157 0.236-0.157 0.378s0.056 0.278 0.157 0.378l2.142 2.133c0.104 0.103 0.241 0.155 0.377 0.155s0.273-0.052 0.376-0.155l2.143-2.133c0.1-0.1 0.157-0.236 0.157-0.378s-0.057-0.278-0.157-0.378zM11.083 20.303l-1.387-1.381 1.387-1.381 1.387 1.381-1.387 1.381z"></path>
<path fill="#212121" style="fill: var(--color2, #212121)" d="M17.164 5.071l-0.258 1.036c0.071 0.018 1.738 0.452 1.738 2.149h1.067c-0-2.017-1.666-2.965-2.547-3.185z"></path>
<path fill="#212121" style="fill: var(--color2, #212121)" d="M19.711 9.322h-1.067v1.067h1.067v-1.067z"></path>
</symbol>
</defs>
</svg>
