<svg xmlns="http://www.w3.org/2000/svg" aria-hidden="true" style="position:absolute;width:0;height:0;overflow:hidden"><defs><symbol id="icon-astronaut-1-2" viewBox="0 0 32 32"><path fill="#2196f3" d="M32 5V4h-2l-1-2h-1l-1 2h-2a1 1 0 0 0 0 1l1 1v3h1l1-1 2 1a1 1 0 0 0 1-1l-1-2 2-1zm-2 1h-1l1 1h-1a1 1 0 0 0-1 0h-1V6l-1-1h2V4l1 1h1v1zM26 21h-1v1h1v-1zM26 23h-1v1h1v-1zM27 22h-1v1h1v-1zM25 22h-1v1h1v-1zM22 26h-1v1h1v-1zM22 29h-1v1h1v-1zM23 27h-1v2h1v-2zM21 27h-1v2h1v-2zM16 24h-1v1h1v-1zM16 26h-1v1h1v-1zM17 25h-1v1h1v-1zM15 25h-1v1h1v-1zM6 6H5v1h1V6zM6 8H5v1h1V8zM7 7H6v1h1V7zM5 7H4v1h1V7z" style="fill:var(--color1, #2196f3)"/><path fill="#212121" d="m25 14-1-1-2 1-1 1-2 1h-1a7 7 0 0 0-3-14 7 7 0 0 0-6 11H6l-3 2-2 1a2 2 0 0 0 1 3h1l1-1 2-1h2l-6 5-1 2a2 2 0 0 0 0 2 2 2 0 0 0 2 0l2-1 1-2 1 1-2 2-1 1a2 2 0 0 0 0 3 2 2 0 0 0 2 0l4-4 1-1 5-6 4 1 3-2 2-1v-3zM2 18a1 1 0 0 1-1-1l2-1v1l-1 1zm4-2-2 1v-2l2-1v2zm15-7-1 3-4-2-1-1 2-5c2 0 4 3 4 5zM9 9a6 6 0 0 1 7-5l-2 4a2 2 0 1 0 0 4l2-1 4 2A6 6 0 0 1 9 9zm6 1a1 1 0 0 1-2 0 1 1 0 0 1 2 0zM2 25a1 1 0 0 1 0-1l1-1v1l-1 1zm4 4H5a1 1 0 0 1 0-1l1-1 1 1-1 1zm3-4-2 2v-1l1-1v-1l-1-2H6l-2 1H3l3-3 4 4-1 1zm7-7v1l-5 5-5-5 3-2a1 1 0 0 0 0-1H7v-2h3a7 7 0 0 0 6 2l3 1v2l-3-1zm4 1v-2l1-1 1 1-2 2zm4-3-1 1-1-2h1s0-1 0 0a1 1 0 0 1 1 1z" style="fill:var(--color2, #212121)"/><path fill="#212121" d="m14 19-3-3-2 3 2 2 3-2zm-3 1-1-1 1-1 1 1-1 1zM17 5v1l2 2h1c0-2-2-3-3-3zM20 9h-1v1h1V9z" style="fill:var(--color2, #212121)"/></symbol></defs></svg>